<svg width="20" height="20" viewBox="0 0 20 20" fill="none" xmlns="http://www.w3.org/2000/svg">
<g id="Search">
<path id="Vector" d="M17.9375 17.9453C17.8208 18.0602 17.6637 18.1248 17.5 18.125C17.334 18.1243 17.1747 18.06 17.0547 17.9453L13.6797 14.5625C12.2583 15.7564 10.4308 16.3555 8.57844 16.2348C6.72607 16.1141 4.99182 15.2829 3.73738 13.9146C2.48294 12.5463 1.80518 10.7465 1.84545 8.89066C1.88571 7.0348 2.6409 5.26613 3.9535 3.95353C5.2661 2.64093 7.03477 1.88574 8.89063 1.84548C10.7465 1.80521 12.5463 2.48298 13.9146 3.73741C15.2828 4.99185 16.114 6.7261 16.2348 8.57847C16.3555 10.4308 15.7564 12.2583 14.5625 13.6797L17.9375 17.0547C17.9966 17.1129 18.0434 17.1822 18.0755 17.2586C18.1075 17.3351 18.124 17.4171 18.124 17.5C18.124 17.5829 18.1075 17.665 18.0755 17.7414C18.0434 17.8179 17.9966 17.8872 17.9375 17.9453ZM9.0625 15C10.2368 15 11.3848 14.6518 12.3612 13.9994C13.3376 13.347 14.0986 12.4196 14.548 11.3347C14.9974 10.2498 15.115 9.05594 14.8859 7.90418C14.6568 6.75242 14.0913 5.69446 13.2609 4.86408C12.4306 4.03371 11.3726 3.46822 10.2208 3.23912C9.06909 3.01002 7.87525 3.1276 6.79032 3.57699C5.70538 4.02639 4.77807 4.78741 4.12565 5.76383C3.47323 6.74025 3.125 7.8882 3.125 9.06253C3.12707 10.6366 3.75329 12.1456 4.86634 13.2587C5.97938 14.3717 7.48841 14.998 9.0625 15Z" fill="#464E56"/>
</g>
</svg>
