<svg width="16" height="16" viewBox="0 0 16 16" fill="none" xmlns="http://www.w3.org/2000/svg">
  <g id="SignOut">
    <g id="Vector">
      <path
        d="M12.7929 8L10.5216 10.2713C10.4279 10.365 10.375 10.4924 10.375 10.625C10.375 10.633 10.3752 10.641 10.3756 10.649C10.3815 10.7732 10.4336 10.8907 10.5214 10.9786C10.6152 11.0723 10.7424 11.125 10.875 11.125C11.0076 11.125 11.1348 11.0723 11.2286 10.9786L13.8536 8.35355C13.9473 8.25978 14 8.13261 14 8C14 7.86739 13.9473 7.74021 13.8536 7.64645L11.2286 5.02151C11.1348 4.92768 11.0076 4.875 10.875 4.875C10.7424 4.875 10.6152 4.92768 10.5214 5.02145C10.4277 5.11521 10.375 5.24239 10.375 5.375C10.375 5.50761 10.4277 5.63479 10.5214 5.72855L12.7929 8Z"
        fill="currentColor"/>
      <path
        d="M6.5 8.5H13.5C13.7761 8.5 14 8.27614 14 8C14 7.72386 13.7761 7.5 13.5 7.5H6.5C6.22386 7.5 6 7.72386 6 8C6 8.27614 6.22386 8.5 6.5 8.5Z"
        fill="currentColor"/>
      <path
        d="M3 3H6.5C6.77614 3 7 2.77614 7 2.5C7 2.22386 6.77614 2 6.5 2H3C2.58579 2 2.29289 2.29289 2.29289 2.29289C2 2.58579 2 3 2 3V13C2 13.4142 2.29289 13.7071 2.29289 13.7071C2.58579 14 3 14 3 14H6.5C6.77614 14 7 13.7761 7 13.5C7 13.2239 6.77614 13 6.5 13H3V3Z"
        fill="currentColor"/>
    </g>
  </g>
</svg>
